# xmcd
#
# Track frame offsets:
#	150
#	17015
#	44352
#	61989
#	82908
#	105953
#	134570
#	173619
#	214541
#	239995
#
# Disc length: 3621
#
# Revision: 1
# Processed by: cddbd v1.5.1PL0 Copyright (c) Steve Scherf et al.
# Submitted via: CDex 1.50beta9
# Normalized: r0:TRMNUM
#
DISCID=7f0e230a
DTITLE=Eric Clapton - One more car, one more rider
DYEAR=2001
DGENRE=Blues
TTITLE0=Key to the highway
TTITLE1=Reptil
TTITLE2=Got you on my mind
TTITLE3=Tears in heaven
TTITLE4=Bell bottom blues
TTITLE5=Change the world
TTITLE6=Father's eyes
TTITLE7=River of tears
TTITLE8=Going down slow
TTITLE9=She's gone
EXTD=YEAR: 2001
EXTT0=
EXTT1=
EXTT2=
EXTT3=
EXTT4=
EXTT5=
EXTT6=
EXTT7=
EXTT8=
EXTT9=
PLAYORDER=
